<svg xmlns="http://www.w3.org/2000/svg"  viewBox="0 0 64 64" width="64px" height="64px"><radialGradient id="545rYPV6-nqXEaYNEabf5a" cx="32.156" cy="911.266" r="32.905" gradientTransform="translate(0 -879)" gradientUnits="userSpaceOnUse"><stop offset="0" stop-color="#afeeff"/><stop offset=".193" stop-color="#bbf1ff"/><stop offset=".703" stop-color="#d7f8ff"/><stop offset="1" stop-color="#e1faff"/></radialGradient><path fill="url(#545rYPV6-nqXEaYNEabf5a)" d="M61.361,59c-3.242,0-3.478,0-6.722,0c-1.308,0-2.496-0.941-2.626-2.242	C51.863,55.261,53.034,54,54.5,54h4.33c1.625,0,3.081-1.217,3.165-2.839C62.086,49.431,60.71,48,59,48h-9l3-5.224	c0.156-0.26,0.326-0.509,0.47-0.776h6.03c2.485,0,4.5-2.015,4.5-4.5S61.985,33,59.5,33H54v-1c0-2.209,1.791-4,4-4h2.5	c2.138,0,3.829-1.918,3.445-4.127C63.649,22.166,62.035,21,60.302,21h0.213c-2.185,0-3.371-0.941-3.502-2.242	C56.863,17.261,58.034,16,59.5,16h0.33c1.625,0,3.081-1.217,3.166-2.839C63.086,11.431,61.71,10,60,10h-8.5	C50.119,10,49,8.881,49,7.5S50.119,5,51.5,5h2.857c1.308,0,2.5-0.941,2.63-2.242C57.137,1.261,55.966,0,54.5,0H5.643	c-1.308,0-2.5,0.941-2.63,2.242C2.863,3.739,4.034,5,5.5,5h3.857c1.308,0,2.499,0.941,2.63,2.242C12.137,8.738,10.966,10,9.5,10	H3.17c-1.625,0-3.081,1.216-3.166,2.839C-0.086,14.569,1.29,16,3,16h1.357c1.308,0,2.499,0.941,2.63,2.242	C7.137,19.738,5.966,21,4.5,21H3.698c-1.733,0-3.348,1.166-3.644,2.874C-0.329,26.083,1.362,28,3.5,28H7c2.209,0,1,1.791,1,4v2H4	c-2.209,0-4,1.791-4,4s1.791,4,4,4h7c0.863,1.59,4.164,6,3,6H6.111c-1.451,0-2.781,0.981-3.054,2.406C2.689,52.323,4.149,54,6,54	h0.358c1.308,0,2.499,0.941,2.629,2.242C9.137,57.739,7.966,59,6.5,59H2.643c-1.308,0-2.499,0.941-2.63,2.242	C-0.137,62.738,1.034,64,2.5,64h59c1.466,0,2.637-1.262,2.487-2.758C63.857,59.941,62.668,59,61.361,59z"/><linearGradient id="545rYPV6-nqXEaYNEabf5b" x1="32" x2="32" y1="67.823" y2="-1.746" gradientUnits="userSpaceOnUse"><stop offset=".096" stop-color="#5e6d7b"/><stop offset=".505" stop-color="#5c6b79"/><stop offset="1" stop-color="#515c69"/></linearGradient><path fill="url(#545rYPV6-nqXEaYNEabf5b)" d="M57,32c0,13.78-11.22,25-25,25	S7,45.78,7,32c0-1.36,0.11-2.7,0.33-4C9.24,16.11,19.58,7,32,7c0.17,0,0.35,0,0.52,0.01C46.06,7.29,57,18.39,57,32z"/><linearGradient id="545rYPV6-nqXEaYNEabf5c" x1="41.176" x2="41.176" y1="32.304" y2="56.705" gradientUnits="userSpaceOnUse"><stop offset=".085" stop-color="#5e6d7b"/><stop offset=".421" stop-color="#5c6b79"/><stop offset="1" stop-color="#515c69"/></linearGradient><path fill="url(#545rYPV6-nqXEaYNEabf5c)" d="M37.5,44.997c-0.295,0-1.5,0.003-2,0.003	c-1,0-2.5,1-2.5,2.497C33,49,34.5,50,35.5,50s1.784-0.003,2-0.003c0.83,0,1.5,0.67,1.5,1.5s-0.67,1.5-1.5,1.5h-6.39	c-0.96,0-1.86,0.62-2.06,1.56c-0.25,1.16,0.51,2.18,1.55,2.4c2.572,0.165,5.179-0.131,7.64-0.75c2.631-0.688,5.152-1.788,7.42-3.29	c0.99-0.64,1.92-1.36,2.8-2.13c1.909-1.672,3.557-3.598,4.89-5.79H37.5z"/><linearGradient id="545rYPV6-nqXEaYNEabf5d" x1="20.168" x2="20.168" y1="70.166" y2="14.838" gradientUnits="userSpaceOnUse"><stop offset="0" stop-color="#6c7985"/><stop offset=".279" stop-color="#6c7985"/><stop offset=".359" stop-color="#697884"/><stop offset=".728" stop-color="#65727e"/><stop offset="1" stop-color="#5f6975"/></linearGradient><path fill="url(#545rYPV6-nqXEaYNEabf5d)" d="M32.52,7.01C32.35,7,32.17,7,32,7	C19.58,7,9.24,16.11,7.33,28H15c0.55,0,1.05-0.22,1.41-0.59C16.78,27.05,17,26.55,17,26c0-1.1-0.9-2-2-2h-0.5	c-0.83,0-1.5-0.67-1.5-1.5c0-0.83,0.67-1.5,1.5-1.5h12.14c1.3,0,2.36-1.12,2.36-2.5S27.94,16,26.64,16h-1.98	c-1.46,0-2.74-1.2-2.66-2.65c0.04-0.63,0.31-1.2,0.73-1.62C23.18,11.28,23.81,11,24.5,11h5.86c1.26,0,2.43-0.87,2.62-2.12	C33.08,8.18,32.89,7.52,32.52,7.01z"/><linearGradient id="545rYPV6-nqXEaYNEabf5e" x1="32.044" x2="32.044" y1="56.37" y2="11.612" gradientUnits="userSpaceOnUse"><stop offset="0" stop-color="#ffc050"/><stop offset=".004" stop-color="#ffc050"/><stop offset=".641" stop-color="#ffbe75"/><stop offset="1" stop-color="#ffbd85"/><stop offset="1" stop-color="#ffbd85"/></linearGradient><path fill="url(#545rYPV6-nqXEaYNEabf5e)" d="M54.2,20.512	c-0.363-0.7-0.75-1.387-1.188-2.038c-3.512,1.4-6.888,3.05-10.225,4.775c-1.113,0.567-2.212,1.159-3.305,1.763l-16.545-8.951	l-1.875,1.25L32,25.75l1.538,2.691c-0.892,0.528-1.783,1.057-2.675,1.584c-3.925,2.35-7.812,4.775-11.65,7.262	c-3.15,2.075-6.275,4.163-9.325,6.375c0.3,0.588,0.638,1.15,1,1.7c3.438-1.55,6.8-3.213,10.15-4.9c4.075-2.1,8.112-4.262,12.1-6.488	c0.897-0.509,1.795-1.016,2.692-1.524L37,34.5l2.187,14.062l1.875-0.625l0.827-19.012c1.033-0.627,2.06-1.265,3.073-1.926	C48.125,24.962,51.238,22.863,54.2,20.512z"/></svg>